<?xml version="1.0" encoding="UTF-8" standalone="no"?>
<!-- Created with Inkscape (http://www.inkscape.org/) -->

<svg
   xmlns:dc="http://purl.org/dc/elements/1.1/"
   xmlns:cc="http://creativecommons.org/ns#"
   xmlns:rdf="http://www.w3.org/1999/02/22-rdf-syntax-ns#"
   xmlns:svg="http://www.w3.org/2000/svg"
   xmlns="http://www.w3.org/2000/svg"
   xmlns:xlink="http://www.w3.org/1999/xlink"
   xmlns:sodipodi="http://sodipodi.sourceforge.net/DTD/sodipodi-0.dtd"
   xmlns:inkscape="http://www.inkscape.org/namespaces/inkscape"
   id="svg2"
   version="1.1"
   inkscape:version="0.48.2 r9819"
   width="426.66625"
   height="155.6475"
   xml:space="preserve"
   sodipodi:docname="bitalino_logo_2.0_icons_3versions.pdf"><metadata
     id="metadata8"><rdf:RDF><cc:Work
         rdf:about=""><dc:format>image/svg+xml</dc:format><dc:type
           rdf:resource="http://purl.org/dc/dcmitype/StillImage" /><dc:title></dc:title></cc:Work></rdf:RDF></metadata><defs
     id="defs6"><clipPath
       clipPathUnits="userSpaceOnUse"
       id="clipPath16"><path
         d="m 0,124.518 341.333,0 L 341.333,0 0,0 0,124.518 z"
         id="path18" /></clipPath><clipPath
       clipPathUnits="userSpaceOnUse"
       id="clipPath24"><path
         d="m 30.654,-65.644 0,0.063 -8.421,0 1.502,-5.306 4.294,0 c -1.865,-6.084 -0.401,-12.979 4.404,-17.785 6.285,-6.285 16.147,-6.863 23.091,-1.735 l -3.814,3.814 c -4.818,-3.093 -11.316,-2.536 -15.525,1.673 -4.209,4.209 -4.765,10.708 -1.673,15.525 l -3.814,3.814 c -0.016,-0.021 -0.029,-0.042 -0.044,-0.063"
         id="path26" /></clipPath><clipPath
       clipPathUnits="userSpaceOnUse"
       id="clipPath32"><path
         d="m -247.107,-300.481 841,0 0,595 -841,0 0,-595 z"
         id="path34" /></clipPath><linearGradient
       x1="0"
       y1="0"
       x2="1"
       y2="0"
       gradientUnits="userSpaceOnUse"
       gradientTransform="matrix(0,28.282009,28.282009,0,38.878876,-93.863449)"
       spreadMethod="pad"
       id="linearGradient48"><stop
         style="stop-opacity:1;stop-color:#67a41f"
         offset="0"
         id="stop50" /><stop
         style="stop-opacity:1;stop-color:#80cc28"
         offset="1"
         id="stop52" /></linearGradient><clipPath
       clipPathUnits="userSpaceOnUse"
       id="clipPath60"><path
         d="m 0,124.518 341.333,0 L 341.333,0 0,0 0,124.518 z"
         id="path62" /></clipPath><clipPath
       clipPathUnits="userSpaceOnUse"
       id="clipPath68"><path
         d="m 34.094,-61.788 3.815,-3.815 c 4.816,3.093 11.315,2.537 15.525,-1.673 4.209,-4.209 4.765,-10.707 1.673,-15.525 l 3.814,-3.814 c 0.014,0.021 0.029,0.042 0.044,0.063 l 0,-0.063 8.42,0 -1.502,5.306 -4.294,0 c 1.866,6.085 0.402,12.98 -4.403,17.785 -3.461,3.461 -8.007,5.191 -12.553,5.191 -3.709,10e-4 -7.419,-1.151 -10.539,-3.455"
         id="path70" /></clipPath><clipPath
       clipPathUnits="userSpaceOnUse"
       id="clipPath76"><path
         d="m -247.107,-300.481 841,0 0,595 -841,0 0,-595 z"
         id="path78" /></clipPath><linearGradient
       x1="0"
       y1="0"
       x2="1"
       y2="0"
       gradientUnits="userSpaceOnUse"
       gradientTransform="matrix(0,28.282009,28.282009,0,50.739868,-86.615143)"
       spreadMethod="pad"
       id="linearGradient92"><stop
         style="stop-opacity:1;stop-color:#2e2a2b"
         offset="0"
         id="stop94" /><stop
         style="stop-opacity:1;stop-color:#403c3d"
         offset="1"
         id="stop96" /></linearGradient><clipPath
       clipPathUnits="userSpaceOnUse"
       id="clipPath104"><path
         d="m 0,124.518 341.333,0 L 341.333,0 0,0 0,124.518 z"
         id="path106" /></clipPath><clipPath
       clipPathUnits="userSpaceOnUse"
       id="clipPath112"><path
         d="m 156.049,-73.434 5.394,0 c 1.219,5.593 6.208,9.794 12.16,9.795 5.954,-10e-4 10.942,-4.202 12.161,-9.795 l 5.306,0 0,-5.329 -1.824,0 0,-5.26 7.108,0 0.021,0 0,15.808 0,0.021 -0.592,-0.02 -6.09,0.019 -0.4,0.399 c -2.982,5.622 -8.894,9.463 -15.69,9.463 -8.887,0 -16.27,-6.566 -17.554,-15.101"
         id="path114" /></clipPath><clipPath
       clipPathUnits="userSpaceOnUse"
       id="clipPath120"><path
         d="m -246.431,-300.482 841,0 0,595 -841,0 0,-595 z"
         id="path122" /></clipPath><linearGradient
       x1="0"
       y1="0"
       x2="1"
       y2="0"
       gradientUnits="userSpaceOnUse"
       gradientTransform="matrix(2.5534079,9.0604801,9.0604801,-2.5534079,176.20242,-78.50972)"
       spreadMethod="pad"
       id="linearGradient136"><stop
         style="stop-opacity:1;stop-color:#2e2a2b"
         offset="0"
         id="stop138" /><stop
         style="stop-opacity:1;stop-color:#403c3d"
         offset="1"
         id="stop140" /></linearGradient><clipPath
       clipPathUnits="userSpaceOnUse"
       id="clipPath148"><path
         d="m 0,124.518 341.333,0 L 341.333,0 0,0 0,124.518 z"
         id="path150" /></clipPath><clipPath
       clipPathUnits="userSpaceOnUse"
       id="clipPath156"><path
         d="m 150.597,-68.175 -0.022,0 0,-15.808 0,-0.021 0.592,0.02 6.091,-0.018 0.398,-0.4 c 2.983,-5.622 8.895,-9.463 15.691,-9.462 8.887,-10e-4 16.27,6.565 17.554,15.101 l -5.394,0 c -1.22,-5.593 -6.207,-9.795 -12.16,-9.795 -5.954,0 -10.941,4.202 -12.161,9.795 l -5.305,0 0,5.329 1.823,0 0,5.259 -7.107,0 z"
         id="path158" /></clipPath><clipPath
       clipPathUnits="userSpaceOnUse"
       id="clipPath164"><path
         d="m -246.431,-300.482 841,0 0,595 -841,0 0,-595 z"
         id="path166" /></clipPath><linearGradient
       x1="0"
       y1="0"
       x2="1"
       y2="0"
       gradientUnits="userSpaceOnUse"
       gradientTransform="matrix(2.8005121,-14.00256,-14.00256,-2.8005121,168.63663,-70.874023)"
       spreadMethod="pad"
       id="linearGradient180"><stop
         style="stop-opacity:1;stop-color:#528318"
         offset="0"
         id="stop182" /><stop
         style="stop-opacity:1;stop-color:#80cc28"
         offset="1"
         id="stop184" /></linearGradient><clipPath
       clipPathUnits="userSpaceOnUse"
       id="clipPath192"><path
         d="m 0,124.518 341.333,0 L 341.333,0 0,0 0,124.518 z"
         id="path194" /></clipPath><clipPath
       clipPathUnits="userSpaceOnUse"
       id="clipPath200"><path
         d="m 156.049,-73.434 5.394,0 c 1.208,5.541 6.116,9.71 11.996,9.788 l 0,5.309 c -8.814,-0.081 -16.114,-6.615 -17.39,-15.097"
         id="path202" /></clipPath><clipPath
       clipPathUnits="userSpaceOnUse"
       id="clipPath208"><path
         d="m -246.431,-300.482 841,0 0,595 -841,0 0,-595 z"
         id="path210" /></clipPath><linearGradient
       x1="0"
       y1="0"
       x2="1"
       y2="0"
       gradientUnits="userSpaceOnUse"
       gradientTransform="matrix(2.3237419,8.2455349,8.2455349,-2.3237419,163.19684,-73.776627)"
       spreadMethod="pad"
       id="linearGradient224"><stop
         style="stop-opacity:1;stop-color:#2e2a2b"
         offset="0"
         id="stop226" /><stop
         style="stop-opacity:1;stop-color:#403c3d"
         offset="1"
         id="stop228" /></linearGradient><clipPath
       clipPathUnits="userSpaceOnUse"
       id="clipPath236"><path
         d="m 0,124.518 341.333,0 L 341.333,0 0,0 0,124.518 z"
         id="path238" /></clipPath><clipPath
       clipPathUnits="userSpaceOnUse"
       id="clipPath244"><path
         d="m 287.037,-60.23 c -5.622,-2.982 -9.462,-8.893 -9.462,-15.689 0,-8.889 6.565,-16.271 15.101,-17.555 l 0,5.394 c -5.594,1.219 -9.795,6.207 -9.796,12.161 10e-4,3.781 1.701,7.169 4.371,9.453 l 0,-3.223 5.425,0 0,9.328 0,1.996 c -0.025,-0.004 -0.05,-0.009 -0.076,-0.013 l 0.044,0.045 c 0,0 -3.555,-0.623 -5.607,-1.897"
         id="path246" /></clipPath><clipPath
       clipPathUnits="userSpaceOnUse"
       id="clipPath252"><path
         d="m -249.268,-300.482 841,0 0,595 -841,0 0,-595 z"
         id="path254" /></clipPath><linearGradient
       x1="0"
       y1="0"
       x2="1"
       y2="0"
       gradientUnits="userSpaceOnUse"
       gradientTransform="matrix(19.998409,19.998409,19.998409,-19.998409,280.23413,-85.920319)"
       spreadMethod="pad"
       id="linearGradient268"><stop
         style="stop-opacity:1;stop-color:#67a41f"
         offset="0"
         id="stop270" /><stop
         style="stop-opacity:1;stop-color:#80cc28"
         offset="1"
         id="stop272" /></linearGradient><clipPath
       clipPathUnits="userSpaceOnUse"
       id="clipPath280"><path
         d="m 0,124.518 341.333,0 L 341.333,0 0,0 0,124.518 z"
         id="path282" /></clipPath><clipPath
       clipPathUnits="userSpaceOnUse"
       id="clipPath288"><path
         d="m 297.759,-63.728 c 5.593,-1.219 9.795,-6.207 9.795,-12.16 0,-3.782 -1.699,-7.169 -4.37,-9.453 l 0,3.222 -5.425,0 0,-9.327 0,-1.997 c 0.025,0.004 0.051,0.009 0.076,0.013 l -0.044,-0.044 c 0,0 3.556,0.622 5.607,1.896 5.622,2.982 9.462,8.894 9.462,15.69 0,8.888 -6.565,16.27 -15.101,17.555 l 0,-5.395 z"
         id="path290" /></clipPath><clipPath
       clipPathUnits="userSpaceOnUse"
       id="clipPath296"><path
         d="m -249.268,-300.482 841,0 0,595 -841,0 0,-595 z"
         id="path298" /></clipPath><linearGradient
       x1="0"
       y1="0"
       x2="1"
       y2="0"
       gradientUnits="userSpaceOnUse"
       gradientTransform="matrix(15.10083,0,0,-15.10083,297.75916,-75.904327)"
       spreadMethod="pad"
       id="linearGradient312"><stop
         style="stop-opacity:1;stop-color:#2e2a2b"
         offset="0"
         id="stop314" /><stop
         style="stop-opacity:1;stop-color:#403c3d"
         offset="1"
         id="stop316" /></linearGradient><linearGradient
       x1="0"
       y1="0"
       x2="1"
       y2="0"
       gradientUnits="userSpaceOnUse"
       gradientTransform="matrix(0,46.37912,46.37912,0,78.612335,40.859924)"
       spreadMethod="pad"
       id="linearGradient334"><stop
         style="stop-opacity:1;stop-color:#2e2a2b"
         offset="0"
         id="stop336" /><stop
         style="stop-opacity:1;stop-color:#403c3d"
         offset="1"
         id="stop338" /></linearGradient><linearGradient
       x1="0"
       y1="0"
       x2="1"
       y2="0"
       gradientUnits="userSpaceOnUse"
       gradientTransform="matrix(0,62.482922,62.482922,0,45.072449,40.859924)"
       spreadMethod="pad"
       id="linearGradient354"><stop
         style="stop-opacity:1;stop-color:#2e2a2b"
         offset="0"
         id="stop356" /><stop
         style="stop-opacity:1;stop-color:#403c3d"
         offset="1"
         id="stop358" /></linearGradient><clipPath
       clipPathUnits="userSpaceOnUse"
       id="clipPath366"><path
         d="m 0,124.518 341.333,0 L 341.333,0 0,0 0,124.518 z"
         id="path368" /></clipPath><linearGradient
       x1="0"
       y1="0"
       x2="1"
       y2="0"
       gradientUnits="userSpaceOnUse"
       gradientTransform="matrix(0,62.482922,62.482922,0,100.46725,40.859924)"
       spreadMethod="pad"
       id="linearGradient434"><stop
         style="stop-opacity:1;stop-color:#2e2a2b"
         offset="0"
         id="stop436" /><stop
         style="stop-opacity:1;stop-color:#403c3d"
         offset="1"
         id="stop438" /></linearGradient><linearGradient
       x1="0"
       y1="0"
       x2="1"
       y2="0"
       gradientUnits="userSpaceOnUse"
       gradientTransform="matrix(0,49.9538,49.9538,0,142.03113,39.605652)"
       spreadMethod="pad"
       id="linearGradient454"><stop
         style="stop-opacity:1;stop-color:#67a41f"
         offset="0"
         id="stop456" /><stop
         style="stop-opacity:1;stop-color:#80cc28"
         offset="1"
         id="stop458" /></linearGradient><linearGradient
       x1="0"
       y1="0"
       x2="1"
       y2="0"
       gradientUnits="userSpaceOnUse"
       gradientTransform="matrix(0,62.69783,62.69783,0,181.68805,40.64505)"
       spreadMethod="pad"
       id="linearGradient474"><stop
         style="stop-opacity:1;stop-color:#67a41f"
         offset="0"
         id="stop476" /><stop
         style="stop-opacity:1;stop-color:#80cc28"
         offset="1"
         id="stop478" /></linearGradient><linearGradient
       x1="0"
       y1="0"
       x2="1"
       y2="0"
       gradientUnits="userSpaceOnUse"
       gradientTransform="matrix(0,46.575169,46.575169,0,201.35504,40.80603)"
       spreadMethod="pad"
       id="linearGradient494"><stop
         style="stop-opacity:1;stop-color:#67a41f"
         offset="0"
         id="stop496" /><stop
         style="stop-opacity:1;stop-color:#80cc28"
         offset="1"
         id="stop498" /></linearGradient><clipPath
       clipPathUnits="userSpaceOnUse"
       id="clipPath506"><path
         d="m 0,124.518 341.333,0 L 341.333,0 0,0 0,124.518 z"
         id="path508" /></clipPath><linearGradient
       x1="0"
       y1="0"
       x2="1"
       y2="0"
       gradientUnits="userSpaceOnUse"
       gradientTransform="matrix(0,40.03904,40.03904,0,279.09442,39.67215)"
       spreadMethod="pad"
       id="linearGradient532"><stop
         style="stop-opacity:1;stop-color:#67a41f"
         offset="0"
         id="stop534" /><stop
         style="stop-opacity:1;stop-color:#80cc28"
         offset="1"
         id="stop536" /></linearGradient><linearGradient
       x1="0"
       y1="0"
       x2="1"
       y2="0"
       gradientUnits="userSpaceOnUse"
       gradientTransform="matrix(0,40.03904,40.03904,0,295.88617,49.933746)"
       spreadMethod="pad"
       id="linearGradient552"><stop
         style="stop-opacity:1;stop-color:#2e2a2b"
         offset="0"
         id="stop554" /><stop
         style="stop-opacity:1;stop-color:#403c3d"
         offset="1"
         id="stop556" /></linearGradient><linearGradient
       x1="0"
       y1="0"
       x2="1"
       y2="0"
       gradientUnits="userSpaceOnUse"
       gradientTransform="matrix(0,48.75349,48.75349,0,231.39264,40.80603)"
       spreadMethod="pad"
       id="linearGradient572"><stop
         style="stop-opacity:1;stop-color:#67a41f"
         offset="0"
         id="stop574" /><stop
         style="stop-opacity:1;stop-color:#80cc28"
         offset="1"
         id="stop576" /></linearGradient><linearGradient
       inkscape:collect="always"
       xlink:href="#linearGradient334"
       id="linearGradient3610"
       gradientUnits="userSpaceOnUse"
       gradientTransform="matrix(0,46.37912,46.37912,0,78.612335,50.074427)"
       spreadMethod="pad"
       x1="0"
       y1="0"
       x2="1"
       y2="0" /><linearGradient
       inkscape:collect="always"
       xlink:href="#linearGradient354"
       id="linearGradient3612"
       gradientUnits="userSpaceOnUse"
       gradientTransform="matrix(0,62.482922,62.482922,0,45.072449,50.074427)"
       spreadMethod="pad"
       x1="0"
       y1="0"
       x2="1"
       y2="0" /><linearGradient
       inkscape:collect="always"
       xlink:href="#linearGradient434"
       id="linearGradient3614"
       gradientUnits="userSpaceOnUse"
       gradientTransform="matrix(0,62.482922,62.482922,0,100.46725,50.074427)"
       spreadMethod="pad"
       x1="0"
       y1="0"
       x2="1"
       y2="0" /><linearGradient
       inkscape:collect="always"
       xlink:href="#linearGradient454"
       id="linearGradient3616"
       gradientUnits="userSpaceOnUse"
       gradientTransform="matrix(0,49.9538,49.9538,0,142.03113,48.820155)"
       spreadMethod="pad"
       x1="0"
       y1="0"
       x2="1"
       y2="0" /><linearGradient
       inkscape:collect="always"
       xlink:href="#linearGradient474"
       id="linearGradient3618"
       gradientUnits="userSpaceOnUse"
       gradientTransform="matrix(0,62.69783,62.69783,0,181.68805,49.859553)"
       spreadMethod="pad"
       x1="0"
       y1="0"
       x2="1"
       y2="0" /><linearGradient
       inkscape:collect="always"
       xlink:href="#linearGradient494"
       id="linearGradient3620"
       gradientUnits="userSpaceOnUse"
       gradientTransform="matrix(0,46.575169,46.575169,0,201.35504,50.020533)"
       spreadMethod="pad"
       x1="0"
       y1="0"
       x2="1"
       y2="0" /><linearGradient
       inkscape:collect="always"
       xlink:href="#linearGradient532"
       id="linearGradient3622"
       gradientUnits="userSpaceOnUse"
       gradientTransform="matrix(0,40.03904,40.03904,0,279.09442,48.886653)"
       spreadMethod="pad"
       x1="0"
       y1="0"
       x2="1"
       y2="0" /><linearGradient
       inkscape:collect="always"
       xlink:href="#linearGradient552"
       id="linearGradient3624"
       gradientUnits="userSpaceOnUse"
       gradientTransform="matrix(0,40.03904,40.03904,0,295.88617,59.148249)"
       spreadMethod="pad"
       x1="0"
       y1="0"
       x2="1"
       y2="0" /><linearGradient
       inkscape:collect="always"
       xlink:href="#linearGradient572"
       id="linearGradient3626"
       gradientUnits="userSpaceOnUse"
       gradientTransform="matrix(0,48.75349,48.75349,0,231.39264,50.020533)"
       spreadMethod="pad"
       x1="0"
       y1="0"
       x2="1"
       y2="0" /></defs><sodipodi:namedview
     pagecolor="#ffffff"
     bordercolor="#666666"
     borderopacity="1"
     objecttolerance="10"
     gridtolerance="10"
     guidetolerance="10"
     inkscape:pageopacity="0"
     inkscape:pageshadow="2"
     inkscape:window-width="1440"
     inkscape:window-height="852"
     id="namedview4"
     showgrid="false"
     inkscape:zoom="1.1789074"
     inkscape:cx="106.87863"
     inkscape:cy="77.823753"
     inkscape:window-x="0"
     inkscape:window-y="0"
     inkscape:window-maximized="1"
     inkscape:current-layer="g10" /><g
     id="g10"
     inkscape:groupmode="layer"
     inkscape:label="bitalino_logo_2.0_icons_3versions"
     transform="matrix(1.25,0,0,-1.25,0,155.6475)"><g
       id="g12"><g
         id="g14"
         clip-path="url(#clipPath16)"><g
           id="g20"><g
             id="g22"
             clip-path="url(#clipPath24)"><g
               id="g28"><g
                 id="g30"
                 clip-path="url(#clipPath32)"><g
                   id="g36"><g
                     id="g38"><g
                       id="g44"><g
                         id="g46"><path
                           d="m -247.107,294.518 841,0 0,-595 -841,0 0,595 z"
                           style="fill:url(#linearGradient48);stroke:none"
                           id="path54" /></g></g></g></g></g></g></g></g></g></g><g
       id="g56"><g
         id="g58"
         clip-path="url(#clipPath60)"><g
           id="g64"><g
             id="g66"
             clip-path="url(#clipPath68)"><g
               id="g72"><g
                 id="g74"
                 clip-path="url(#clipPath76)"><g
                   id="g80"><g
                     id="g82"><g
                       id="g88"><g
                         id="g90"><path
                           d="m -247.107,294.518 841,0 0,-595 -841,0 0,595 z"
                           style="fill:url(#linearGradient92);stroke:none"
                           id="path98" /></g></g></g></g></g></g></g></g></g></g><g
       id="g100"><g
         id="g102"
         clip-path="url(#clipPath104)"><g
           id="g108"><g
             id="g110"
             clip-path="url(#clipPath112)"><g
               id="g116"><g
                 id="g118"
                 clip-path="url(#clipPath120)"><g
                   id="g124"><g
                     id="g126"><g
                       id="g132"><g
                         id="g134"><path
                           d="M -401.775,-256.704 -184.552,514.088 749.913,250.739 532.69,-520.053 -401.775,-256.704 z"
                           style="fill:url(#linearGradient136);stroke:none"
                           id="path142" /></g></g></g></g></g></g></g></g></g></g><g
       id="g144"><g
         id="g146"
         clip-path="url(#clipPath148)"><g
           id="g152"><g
             id="g154"
             clip-path="url(#clipPath156)"><g
               id="g160"><g
                 id="g162"
                 clip-path="url(#clipPath164)"><g
                   id="g168"><g
                     id="g170"><g
                       id="g176"><g
                         id="g178"><path
                           d="M 562.223,456.248 708.992,-277.598 -214.085,-462.213 -360.854,271.633 562.223,456.248 z"
                           style="fill:url(#linearGradient180);stroke:none"
                           id="path186" /></g></g></g></g></g></g></g></g></g></g><g
       id="g188"><g
         id="g190"
         clip-path="url(#clipPath192)"><g
           id="g196"><g
             id="g198"
             clip-path="url(#clipPath200)"><g
               id="g204"><g
                 id="g206"
                 clip-path="url(#clipPath208)"><g
                   id="g212"><g
                     id="g214"><g
                       id="g220"><g
                         id="g222"><path
                           d="M -401.775,-256.704 -184.552,514.088 749.913,250.739 532.69,-520.053 -401.775,-256.704 z"
                           style="fill:url(#linearGradient224);stroke:none"
                           id="path230" /></g></g></g></g></g></g></g></g></g></g><g
       id="g232"><g
         id="g234"
         clip-path="url(#clipPath236)"><g
           id="g240"><g
             id="g242"
             clip-path="url(#clipPath244)"><g
               id="g248"><g
                 id="g250"
                 clip-path="url(#clipPath252)"><g
                   id="g256"><g
                     id="g258"><g
                       id="g264"><g
                         id="g266"><path
                           d="m -546.768,-2.982 718,717.999 718,-717.999 -718,-718 -718,718 z"
                           style="fill:url(#linearGradient268);stroke:none"
                           id="path274" /></g></g></g></g></g></g></g></g></g></g><g
       id="g276"><g
         id="g278"
         clip-path="url(#clipPath280)"><g
           id="g284"><g
             id="g286"
             clip-path="url(#clipPath288)"><g
               id="g292"><g
                 id="g294"
                 clip-path="url(#clipPath296)"><g
                   id="g300"><g
                     id="g302"><g
                       id="g308"><g
                         id="g310"><path
                           d="m -249.268,294.518 841,0 0,-595 -841,0 0,595 z"
                           style="fill:url(#linearGradient312);stroke:none"
                           id="path318" /></g></g></g></g></g></g></g></g></g></g><g
       id="g3555"
       transform="translate(0,-9.2145027)"><path
         id="path320"
         style="fill:#403c3d;fill-opacity:1;fill-rule:nonzero;stroke:none"
         d="m 72.727,103.342 11.805,0 0,-11.805 -11.805,0 0,11.805 z"
         inkscape:connector-curvature="0" /><g
         id="g322"><g
           id="g324"><g
             id="g330"><g
               id="g332"><path
                 id="path340"
                 style="fill:url(#linearGradient3610);stroke:none"
                 d="m 72.692,40.859 11.84,0 0,46.38 -11.84,0 0,-46.38 z"
                 inkscape:connector-curvature="0" /></g></g></g></g><g
         id="g342"><g
           id="g344"><g
             id="g350"><g
               id="g352"><path
                 id="path360"
                 style="fill:url(#linearGradient3612);stroke:none"
                 d="m 21.883,103.342 0,-16.103 0,-25.837 0,-20.543 46.378,0 0,46.38 -34.538,0 0,16.103 -11.84,0 z m 12.132,-28.233 22.118,0 0,-22.118 -22.118,0 0,22.118 z"
                 inkscape:connector-curvature="0" /></g></g></g></g><g
         id="g422"><g
           id="g424"><g
             id="g430"><g
               id="g432"><path
                 id="path440"
                 style="fill:url(#linearGradient3614);stroke:none"
                 d="m 88.92,103.342 0,-16.103 0,-12.013 0,-34.367 11.84,0 0,34.367 11.254,0 0,12.013 -11.254,0 0,16.103 -11.84,0 z"
                 inkscape:connector-curvature="0" /></g></g></g></g><g
         id="g442"><g
           id="g444"><g
             id="g450"><g
               id="g452"><path
                 id="path460"
                 style="fill:url(#linearGradient3616);stroke:none"
                 d="m 118.163,64.536 c 0,-14.22 10.618,-24.931 23.73,-24.931 l 0,0 c 6.741,0 12.741,3.418 16.436,8.588 l 0,0 0,-7.387 7.571,0 0,23.73 c 0,14.036 -10.341,25.023 -23.822,25.023 l 0,0 c -13.204,0 -23.915,-10.71 -23.915,-25.023 m 7.849,0 c 0,9.973 7.202,17.82 16.066,17.82 l 0,0 c 8.679,0 16.065,-7.94 16.065,-17.82 l 0,0 c 0,-9.789 -7.293,-17.637 -16.065,-17.637 l 0,0 c -8.864,0 -16.066,7.665 -16.066,17.637"
                 inkscape:connector-curvature="0" /></g></g></g></g><g
         id="g462"><g
           id="g464"><g
             id="g470"><g
               id="g472"><path
                 id="path480"
                 style="fill:url(#linearGradient3618);stroke:none"
                 d="m 172.27,103.342 0,-45.177 c 0,-12.096 7.663,-18.651 18.837,-17.359 l 0,0 0,7.387 c -5.91,-0.278 -11.081,1.846 -11.081,10.249 l 0,0 0,44.9 -7.756,0 z"
                 inkscape:connector-curvature="0" /></g></g></g></g><g
         id="g482"><g
           id="g484"><g
             id="g490"><g
               id="g492"><path
                 id="path500"
                 style="fill:url(#linearGradient3620);stroke:none"
                 d="m 197.431,40.806 7.847,0 0,46.575 -7.847,0 0,-46.575 z"
                 inkscape:connector-curvature="0" /></g></g></g></g><g
         id="g502"><g
           clip-path="url(#clipPath506)"
           id="g504"><path
             id="path510"
             style="fill:#80cc28;fill-opacity:1;fill-rule:nonzero;stroke:none"
             d="m 205.346,103.342 -7.85,0 0,-7.85 7.85,0 0,7.85 z"
             inkscape:connector-curvature="0" /><g
             transform="translate(290.3582,62.0382)"
             id="g512"><path
               id="path514"
               style="fill:#2e2a2b;fill-opacity:1;fill-rule:nonzero;stroke:none"
               d="m 0,0 c 1.521,1.521 3.986,1.521 5.506,0 1.521,-1.521 1.521,-3.986 0,-5.506 -1.52,-1.521 -3.985,-1.521 -5.506,0 -1.521,1.52 -1.521,3.985 0,5.506"
               inkscape:connector-curvature="0" /></g><g
             transform="translate(279.4803,72.9161)"
             id="g516"><path
               id="path518"
               style="fill:#2e2a2b;fill-opacity:1;fill-rule:nonzero;stroke:none"
               d="m 0,0 c 1.521,1.521 3.986,1.521 5.506,0 1.521,-1.521 1.521,-3.986 0,-5.506 -1.52,-1.521 -3.985,-1.521 -5.506,0 -1.521,1.52 -1.521,3.985 0,5.506"
               inkscape:connector-curvature="0" /></g></g></g><g
         id="g520"><g
           id="g522"><g
             id="g528"><g
               id="g530"><path
                 id="path538"
                 style="fill:url(#linearGradient3622);stroke:none"
                 d="m 267.449,79.622 0,0.089 -11.919,0 c 1.082,-2.281 1.808,-4.804 2.126,-7.511 l 0,0 6.079,0 c -2.642,-8.614 -0.57,-18.376 6.234,-25.179 l 0,0 c 8.898,-8.898 22.859,-9.715 32.69,-2.457 l 0,0 -5.399,5.4 c -6.82,-4.378 -16.02,-3.591 -21.979,2.368 l 0,0 c -5.961,5.96 -6.746,15.159 -2.369,21.979 l 0,0 -5.4,5.4 c -0.02,-0.029 -0.04,-0.059 -0.063,-0.089"
                 inkscape:connector-curvature="0" /></g></g></g></g><g
         id="g540"><g
           id="g542"><g
             id="g548"><g
               id="g550"><path
                 id="path558"
                 style="fill:url(#linearGradient3624);stroke:none"
                 d="m 272.321,85.081 5.4,-5.4 c 6.819,4.378 16.019,3.591 21.979,-2.368 l 0,0 c 5.96,-5.961 6.745,-15.16 2.368,-21.979 l 0,0 5.4,-5.4 c 0.022,0.029 0.04,0.059 0.062,0.088 l 0,0 0,-0.088 11.921,0 0,7.511 -8.205,0 c 2.642,8.614 0.568,18.375 -6.234,25.179 l 0,0 c -4.9,4.899 -11.337,7.348 -17.772,7.348 l 0,0 c -5.251,0 -10.501,-1.63 -14.919,-4.891"
                 inkscape:connector-curvature="0" /></g></g></g></g><g
         id="g560"><g
           id="g562"><g
             id="g568"><g
               id="g570"><path
                 id="path578"
                 style="fill:url(#linearGradient3626);stroke:none"
                 d="m 211.586,69.707 0,-28.901 7.757,0 0,29.177 c 0,7.11 4.708,12.281 12.096,12.281 l 0,0 c 7.294,0 12.004,-5.171 12.004,-12.281 l 0,0 0,-29.177 7.756,0 0,28.901 c 0,12.003 -8.402,19.852 -19.76,19.852 l 0,0 c -11.358,0 -19.853,-7.849 -19.853,-19.852"
                 inkscape:connector-curvature="0" /></g></g></g></g></g></g></svg>