<?xml version="1.0" encoding="UTF-8" standalone="no"?>
<!-- Created with Inkscape (http://www.inkscape.org/) -->

<svg
   xmlns:dc="http://purl.org/dc/elements/1.1/"
   xmlns:cc="http://creativecommons.org/ns#"
   xmlns:rdf="http://www.w3.org/1999/02/22-rdf-syntax-ns#"
   xmlns:svg="http://www.w3.org/2000/svg"
   xmlns="http://www.w3.org/2000/svg"
   xmlns:sodipodi="http://sodipodi.sourceforge.net/DTD/sodipodi-0.dtd"
   xmlns:inkscape="http://www.inkscape.org/namespaces/inkscape"
   id="svg1034"
   sodipodi:version="0.32"
   inkscape:version="0.48.2 r9819"
   width="210mm"
   height="297mm"
   sodipodi:docname="logo_color.svg"
   inkscape:output_extension="org.inkscape.output.svg.inkscape"
   version="1.1">
  <defs
     id="defs1036" />
  <sodipodi:namedview
     id="base"
     pagecolor="#ffffff"
     bordercolor="#666666"
     borderopacity="1.0"
     inkscape:pageopacity="0.0"
     inkscape:pageshadow="2"
     inkscape:zoom="0.36462124"
     inkscape:cx="643.2033"
     inkscape:cy="694.7"
     inkscape:window-width="1028"
     inkscape:window-height="746"
     inkscape:window-x="0"
     inkscape:window-y="22"
     inkscape:current-layer="svg1034"
     showgrid="false"
     inkscape:window-maximized="0" />
  <metadata
     id="metadata1037">
    <rdf:RDF>
      <cc:Work
         rdf:about="">
        <dc:format>image/svg+xml</dc:format>
        <dc:type
           rdf:resource="http://purl.org/dc/dcmitype/StillImage" />
        <dc:title></dc:title>
      </cc:Work>
    </rdf:RDF>
  </metadata>
  <path
     style="fill:#000000;fill-opacity:1;fill-rule:evenodd;stroke:none"
     d="m 700.34763,355.81546 c -6.32,-0.0731 -12.5698,1.90876 -16.3997,6.02797 -17.5659,17.56602 -65.0482,65.04908 -82.6143,82.61536 -8.2333,8.23316 -24.6995,8.23336 -32.9328,0 l -28.4657,-28.67148 c -0.1363,0.22229 -0.2649,0.45176 -0.4108,0.66749 -0.628,0.92859 -1.3352,1.79796 -2.1257,2.58783 -0.7904,0.78965 -1.6584,1.5085 -2.5878,2.13597 -0.1197,0.0807 -0.2478,0.14802 -0.3697,0.22593 8.5696,8.58633 17.1511,17.16421 25.7958,25.67289 10.2612,12.38962 30.0979,14.84436 43.2224,5.65831 24.8157,-24.40036 49.4864,-48.93128 74.1629,-73.4758 5.9368,-5.35711 10.7597,-12.63041 18.6897,-15.19836 1.1136,-0.0715 2.2469,-0.12345 3.3887,-0.12322 3.4256,3.9e-4 6.8783,0.48927 9.7659,2.4338 6.1621,4.64232 6.6343,13.9398 3.1834,20.38425 -26.7094,28.37238 -54.7734,55.44624 -81.8955,83.44715 -11.7571,10.3422 -13.5713,29.49796 -4.7546,42.25757 3.3155,3.35867 6.6513,6.69848 9.9712,10.05349 l 0.1027,0 c 10.2958,10.61437 20.6454,21.18643 30.9817,31.76251 13.2786,13.35169 26.3599,26.9174 39.7514,40.1421 6.2751,5.4072 9.028,15.23889 4.6622,22.62297 -4.3599,6.71349 -14.5007,7.8728 -20.9694,3.64553 -12.0883,-11.54323 -23.9705,-23.31217 -35.8081,-35.13076 0.7619,-1.5483 1.2323,-3.26286 1.2323,-5.10379 0,-6.42738 -5.2177,-11.64522 -11.6451,-11.64522 -6.4273,-4e-5 -11.6451,5.21792 -11.6451,11.64522 0,6.42734 5.2178,11.64528 11.6451,11.64522 1.6771,-4e-5 3.262,-0.367 4.7032,-1.00638 l 33.6927,33.92929 c 8.2333,8.23335 24.7097,8.23343 32.943,0 8.2334,-8.23338 8.2128,-24.68947 -0.0205,-32.92291 l -69.0798,-69.58378 0.0206,0 -1.8279,-1.81763 -0.2671,-0.26698 -10.1765,-10.10486 c -8.2333,-8.23358 -8.2332,-24.69985 0,-32.93319 l 82.337,-82.32779 c 8.2334,-8.23359 8.8085,-24.69978 0.5751,-32.93317 -4.1166,-4.11686 -10.5109,-6.24265 -16.8309,-6.31553 z m -230.1701,0.13349 c -6.17738,-7e-5 -12.35479,2.06533 -16.47146,6.18204 -8.23334,8.23318 -8.21274,24.68947 0.0205,32.92288 l 81.74146,82.33808 c 8.2035,8.26297 8.2334,24.69974 0,32.93319 -8.2332,8.23321 -65.391,65.8705 -81.76196,82.33807 -8.23341,8.23323 -8.21274,24.68957 0.0205,32.92291 8.23328,8.2333 24.68926,8.25389 32.92256,0.0205 8.2333,-8.23363 65.2831,-65.87961 81.7517,-82.34836 8.2333,-8.23359 24.6995,-8.23343 32.9328,0 l 10.2895,10.21783 17.7655,17.88886 c 0.1363,-0.22248 0.265,-0.45177 0.4107,-0.66751 0.6281,-0.92876 1.3353,-1.79798 2.1257,-2.58784 0.7905,-0.7898 1.6585,-1.50848 2.5878,-2.13597 0.1197,-0.0808 0.2479,-0.14802 0.3697,-0.22593 -5.4132,-5.42394 -10.8592,-10.81534 -16.2969,-16.21497 l 0,-0.0719 c -2.9197,-2.87557 -5.8512,-5.73916 -8.7698,-8.61581 -10.3354,-12.46984 -30.3483,-15.21812 -43.5818,-5.83287 -27.1281,26.86477 -54.1511,53.85701 -81.115,80.8901 -5.1267,7.10695 -15.7918,10.11339 -23.51609,5.58641 -6.56956,-4.62325 -7.25551,-14.39445 -3.68659,-21.12362 7.86122,-8.37461 16.13588,-16.4713 24.15278,-24.73841 18.908,-19.48988 38.2773,-38.46887 56.952,-58.19527 11.7327,-10.34918 13.6308,-29.62186 4.4876,-42.22677 -13.6279,-14.20651 -27.4724,-28.24222 -41.2404,-42.32945 -13.2786,-13.3519 -26.3599,-26.91742 -39.75148,-40.14213 -6.27507,-5.40735 -9.02788,-15.23895 -4.66213,-22.62291 4.35987,-6.71371 14.50061,-7.87285 20.96941,-3.64558 12.0882,11.54306 23.9705,23.3121 35.8081,35.13078 -0.7619,1.54811 -1.2323,3.26285 -1.2323,5.10375 0,6.42721 5.2178,11.64522 11.6451,11.64522 6.4273,-1.1e-4 11.645,-5.21789 11.645,-11.64522 10e-5,-6.42749 -5.2177,-11.64527 -11.645,-11.64522 -1.6771,-1.1e-4 -3.262,0.36701 -4.7032,1.00639 l -33.6927,-33.92927 c -4.1167,-4.11681 -10.2941,-6.18204 -16.4716,-6.18204 z m 54.8675,44.92756 c 3.2136,-1.3e-4 5.8226,2.60888 5.8225,5.82258 0,3.21359 -2.6089,5.82257 -5.8225,5.82264 -3.2136,-1.3e-4 -5.8226,-2.60896 -5.8226,-5.82264 0,-3.21379 2.6089,-5.82265 5.8226,-5.82258 z m 119.2337,173.75406 c 3.2136,-6e-5 5.8225,2.60892 5.8225,5.8226 0,3.21364 -2.6088,5.82256 -5.8225,5.82262 -3.2137,-6e-5 -5.8226,-2.60896 -5.8226,-5.82262 0,-3.21374 2.609,-5.82266 5.8226,-5.8226 z"
     id="path13821"
     inkscape:export-filename="/Users/pgraca/Desktop/plux.svn/graphics/logo/logo.png"
     inkscape:export-xdpi="300"
     inkscape:export-ydpi="300"
     inkscape:connector-curvature="0" />
  <g
     id="g13815"
     transform="matrix(0.3942841,0,0,0.3942887,1033.6316,286.7332)"
     style="fill:#000000;fill-opacity:1;stroke:none"
     inkscape:export-filename="/Users/pgraca/Desktop/plux.svn/graphics/logo/logo.png"
     inkscape:export-xdpi="300"
     inkscape:export-ydpi="300">
    <path
       style="fill:#000000;fill-rule:evenodd"
       d="m 513.15453,486.05805 c 0,-17.71654 17.71653,-35.43307 35.43307,-35.43307 17.71653,0 35.43307,17.71653 35.43307,35.43307 l 0,496.06299 c 0,17.71654 -17.71654,35.43306 -35.43307,35.43306 -17.71654,0 -35.43307,-17.71652 -35.43307,-35.43306 l 0,-496.06299 z"
       id="path13816"
       sodipodi:nodetypes="cccsccc"
       transform="translate(-2538.536,-275.4058)"
       inkscape:connector-curvature="0" />
    <path
       style="fill:#000000;fill-rule:evenodd"
       d="m 407.46875,591.71875 -353.6875,0.625 c -17.71654,0 -35.437501,17.72095 -35.4375,35.4375 l 0,347.78125 c -0.33814,1.75793 -0.625,3.53673 -0.625,5.3125 0,1.77372 0.28762,3.52531 0.625,5.28125 l 0,137.68755 c 0,17.7165 17.72096,35.4375 35.4375,35.4375 17.71653,0 35.437503,-17.7209 35.4375,-35.4375 l 0,-107.4688 318.25,0.5625 c 2.21457,0 4.44504,-0.2935 6.625,-0.8125 6.53512,-1.5571 12.74184,-5.2985 17.71875,-10.2812 6.65311,-6.64562 11.09374,-15.47799 11.09375,-24.3438 l 1.25,-353.71875 c 0,-13.39708 -10.11804,-26.76369 -22.71875,-32.5 -4.42733,-2.22501 -9.19478,-3.57093 -13.96875,-3.5625 z m -53.13804,70.87965 c 17.71653,0 17.71653,0 17.71653,17.71654 -0.16667,47.22395 0.16667,200.80753 0,248.03149 0,17.71654 0,17.71654 -17.71653,17.71654 -47.16146,-0.0833 -200.87004,0.0833 -248.0315,0 -17.716533,0 -17.716533,0 -17.716533,-17.71654 0,-47.0573 0,-200.9742 0,-248.03149 0,-17.71654 0,-17.71654 17.716533,-17.71654 47.32812,-0.0833 200.70338,0.0833 248.0315,0 z"
       id="path13817"
       sodipodi:nodetypes="cccccccccccccccccccccccccc"
       transform="translate(-2538.536,-275.4058)"
       inkscape:connector-curvature="0" />
    <path
       style="fill:#000000;fill-rule:evenodd"
       d="m 692.8125,592.34375 c -17.71654,0 -35.43747,17.72095 -35.4375,35.4375 l -1.25,353.0625 c -10e-6,0.0103 0,0.021 0,0.0312 0,0.0103 -10e-6,0.0209 0,0.0312 l 0,0.59375 c 0,17.71654 17.72095,35.4375 35.4375,35.4375 1.68214,0 3.36524,-0.3207 5.03125,-0.625 l 349.31255,0.625 c 2.2145,0 4.4137,-0.2935 6.5937,-0.8125 8.7135,-2.0762 16.8857,-8.0124 22.2813,-15.625 2.699,-3.80629 4.7119,-8.04632 5.75,-12.40625 0.519,-2.17996 0.8124,-4.37918 0.8125,-6.59375 l 1.25,-353.71875 c 0,-17.71654 -17.721,-35.43753 -35.4375,-35.4375 -17.7165,0 -36.1888,17.78393 -36.1888,35.50047 l -1.125,300.50221 c 0,17.71654 0,17.71654 -17.71652,17.71654 -35.43307,0 -200.91191,0.0938 -248.03149,0 -17.71654,0 -17.71654,0 -17.71654,-17.71654 L 728.25,627.78125 c 0,-17.71654 -17.72098,-35.43748 -35.4375,-35.4375 z"
       id="path13818"
       sodipodi:nodetypes="cccccccccccccccccscccc"
       transform="translate(-2538.536,-275.4058)"
       inkscape:connector-curvature="0" />
  </g>
</svg>
